# xmcd
#
# Track frame offsets:
#	150
#	18252
#	33280
#	51892
#	68972
#	89235
#	162017
#
# Disc length: 3141 seconds
#
# Revision: 2
# Processed by: cddbd v1.4PL0 Copyright (c) Steve Scherf et al.
# Submitted via: dBpowerAMP V4.0
#
DISCID=550c4307
DTITLE=Klaus Wunderlich - Golden Sounds Of
DYEAR=1900
DGENRE=Easy Listening
TTITLE0=Medley: They Can't Take That Away From Me
TTITLE1=Medley: Strangers in The Night
TTITLE2=Medley: The Breeze And I
TTITLE3=Medley: Love is Here to Stay
TTITLE4=Medley: Greensleeves
TTITLE5=Medley: Grosses Gershwin-Potpourri
TTITLE6=Medley: Klassik-Hits (Potpourri)
EXTD=Genre is NOT blues, it is Easy LIstening
EXTT0=
EXTT1=
EXTT2=
EXTT3=
EXTT4=
EXTT5=
EXTT6=
PLAYORDER=
